# xmcd
#
# Track frame offsets: 
#        150
#        11620
#        23084
#        32952
#        43002
#        55257
#        60359
#        70594
#        81017
#        90147
#        102409
#        115919
#        122127
#        132642
#        143007
#        156921
#        167110
#
# Disc length: 2378 seconds
#
# Revision: 0
# Processed by: cddbd v1.5.2PL0 Copyright (c) Steve Scherf et al.
# Submitted via: ExactAudioCopy v1.0b3
#
DISCID=dc094811
DTITLE=Hank Williams - CD8 1949-60 Overdub
DYEAR=1900
DGENRE=Country
TTITLE0=Let Me Sit Alone And Think
TTITLE1=Parakeet Polka
TTITLE2=No, Not Now
TTITLE3=Singing Waterfall
TTITLE4=´Neath A Cold Gray Tomb Of Stone
TTITLE5=When You´re Tired Of Breaking Others Hearts
TTITLE6=A House Of Gold
TTITLE7=Lost On The River
TTITLE8=Alone And Forsaken
TTITLE9=The Old Home
TTITLE10=The Devil´s Train
TTITLE11=Sundown And Sorrow
TTITLE12=Thank God
TTITLE13=No One Will Ever Know
TTITLE14=Rock My Cradle Once Again
TTITLE15=With Tears In My Eyes
TTITLE16=The Battle Of Armageddon
EXTD=
EXTT0=
EXTT1=
EXTT2=
EXTT3=
EXTT4=
EXTT5=
EXTT6=
EXTT7=
EXTT8=
EXTT9=
EXTT10=
EXTT11=
EXTT12=
EXTT13=
EXTT14=
EXTT15=
EXTT16=
PLAYORDER=
